<svg width="54" height="55" viewBox="0 0 54 55" fill="none" xmlns="http://www.w3.org/2000/svg">
<rect x="0.5" y="0.5" width="53" height="53.5" rx="11.5" fill="#EF7F1A"/>
<rect x="0.5" y="0.5" width="53" height="53.5" rx="11.5" stroke="#EF7F1A"/>
<g clip-path="url(#clip0_7941_3314)">
<path d="M35.6403 32.98L31.5603 28.84C32.4403 27.8 33.0103 26.62 33.2703 25.3C33.5303 23.98 33.4603 22.67 33.0603 21.37C32.6603 20.07 31.9503 18.96 30.9303 18.04C29.9103 17.12 28.7403 16.5 27.4203 16.18C26.1003 15.86 24.7903 15.88 23.4903 16.24C22.1903 16.6 21.0503 17.27 20.0703 18.25C19.0903 19.23 18.4203 20.37 18.0603 21.67C17.7003 22.97 17.6803 24.28 18.0003 25.6C18.3203 26.92 18.9403 28.09 19.8603 29.11C20.7803 30.13 21.8903 30.84 23.1903 31.24C24.4903 31.64 25.8003 31.71 27.1203 31.45C28.4403 31.19 29.6403 30.62 30.7203 29.74L34.8003 33.82C34.9203 33.94 35.0603 33.99 35.2203 33.97C35.3803 33.95 35.5103 33.89 35.6103 33.79C35.7103 33.69 35.7703 33.56 35.7903 33.4C35.8103 33.24 35.7603 33.1 35.6403 32.98ZM19.0203 23.8C19.0203 22.6 19.3203 21.5 19.9203 20.5C20.5203 19.5 21.3203 18.7 22.3203 18.1C23.3203 17.5 24.4203 17.2 25.6203 17.2C26.8203 17.2 27.9203 17.5 28.9203 18.1C29.9203 18.7 30.7203 19.5 31.3203 20.5C31.9203 21.5 32.2203 22.6 32.2203 23.8C32.2203 25 31.9203 26.1 31.3203 27.1C30.7203 28.1 29.9203 28.9 28.9203 29.5C27.9203 30.1 26.8203 30.4 25.6203 30.4C24.4203 30.4 23.3203 30.1 22.3203 29.5C21.3203 28.9 20.5203 28.1 19.9203 27.1C19.3203 26.1 19.0203 25 19.0203 23.8Z" fill="white"/>
</g>
<defs>
<clipPath id="clip0_7941_3314">
<rect width="18" height="18" fill="white" transform="matrix(1 0 0 -1 18 34)"/>
</clipPath>
</defs>
</svg>
