<svg width="90" height="125" viewBox="0 0 90 125" fill="none" xmlns="http://www.w3.org/2000/svg">
<g clip-path="url(#clip0_7941_3334)">
<g clip-path="url(#clip1_7941_3334)">
<path d="M26.6761 44.2054H16.3427C15.8103 44.2054 15.3784 44.6374 15.3784 45.1697V55.6827C15.3784 56.215 15.8103 56.647 16.3427 56.647C16.875 56.647 17.3069 56.215 17.3069 55.6827V46.134H26.6761C27.2084 46.134 27.6404 45.7021 27.6404 45.1697C27.6404 44.6374 27.2084 44.2054 26.6761 44.2054Z" fill="#EB6753"/>
<path d="M16.3427 58.7677C15.8103 58.7677 15.3784 59.1996 15.3784 59.732V61.0392C15.3784 61.5714 15.8103 62.0034 16.3427 62.0034C16.875 62.0034 17.3069 61.5714 17.3069 61.0392V59.732C17.3069 59.1996 16.875 58.7677 16.3427 58.7677Z" fill="#EB6753"/>
<path d="M60.4062 12.9352C60.0546 13.3358 60.0948 13.946 60.4938 14.2962L74.6154 26.6863C75.015 27.0367 75.624 26.9995 75.9762 26.5984C76.3278 26.1979 76.2876 25.5877 75.8886 25.2374L61.767 12.8473C61.3668 12.4958 60.759 12.5334 60.4062 12.9352Z" fill="#EB6753"/>
<path d="M56.7598 9.73849C56.4095 10.139 56.4497 10.748 56.8502 11.0995L57.4391 11.6156C57.8459 11.9695 58.4518 11.9216 58.8001 11.5252C59.1504 11.1247 59.1102 10.5157 58.7097 10.1641L58.1208 9.64807C57.7203 9.29905 57.1113 9.33667 56.7598 9.73849Z" fill="#EB6753"/>
<path d="M42.6295 17.939C38.3867 17.939 34.9409 21.3975 34.9409 25.6404C34.9409 29.8704 38.3867 33.3161 42.6295 33.3161C46.8595 33.3161 50.3052 29.8704 50.3052 25.6404C50.3052 21.3975 46.8595 17.939 42.6295 17.939ZM42.6295 31.3875C39.4538 31.3875 36.8695 28.8033 36.8695 25.6404C36.8695 22.4518 39.4538 19.8675 42.6295 19.8675C45.7924 19.8675 48.3766 22.4518 48.3766 25.6404C48.3766 28.8033 45.7924 31.3875 42.6295 31.3875Z" fill="#181A20"/>
<path d="M31.2638 68.4162C31.2638 68.9562 30.8267 69.3804 30.2995 69.3804H28.9495C28.4095 69.3804 27.9852 68.9562 27.9852 68.4162C27.9852 67.8888 28.4095 67.452 28.9495 67.452H30.2995C30.8267 67.452 31.2638 67.8888 31.2638 68.4162Z" fill="#181A20"/>
<path d="M68.1918 58.1261H58.8152C58.2828 58.1261 57.8509 58.558 57.8509 59.0904C57.8509 59.6227 58.2828 60.0546 58.8152 60.0546H68.1918C68.724 60.0546 69.156 59.6227 69.156 59.0904C69.156 58.558 68.724 58.1261 68.1918 58.1261Z" fill="#EB6753"/>
<path d="M55.4942 58.1261H55.3021C54.7697 58.1261 54.3378 58.558 54.3378 59.0904C54.3378 59.6227 54.7697 60.0546 55.3021 60.0546H55.4942C56.0266 60.0546 56.4584 59.6227 56.4584 59.0904C56.4584 58.558 56.0266 58.1261 55.4942 58.1261Z" fill="#EB6753"/>
<path d="M83.5926 63.2472H74.991V41.0046H78.0378C80.841 41.0046 82.1394 37.5331 80.0436 35.6946L44.6095 4.60599C43.4653 3.60318 41.7552 3.60318 40.6109 4.60599L25.6709 17.7332V13.7346H27.0852C27.9467 13.7346 28.6409 13.0403 28.6409 12.1917V7.52461C28.6409 6.67597 27.9467 5.98172 27.0852 5.98172H11.5023C10.6409 5.98172 9.94668 6.67597 9.94668 7.52461V12.1917C9.94668 13.0403 10.6409 13.7346 11.5023 13.7346H12.9295V28.9189L5.20237 35.6946C3.10664 37.546 4.4181 41.0046 7.2081 41.0046H10.2553V84.2178H6.87378C6.34668 84.2178 5.90952 84.642 5.90952 85.182C5.90952 85.7088 6.34668 86.1461 6.87378 86.1461H6.95094H83.5926C84.8268 86.1461 85.8294 85.1303 85.8294 83.8961V65.4846C85.8294 64.2504 84.8268 63.2472 83.5926 63.2472ZM11.8753 11.806V7.91029H26.7124V11.806H11.8753ZM23.7424 13.7346V19.4174L14.8581 27.2217V13.7346H23.7424ZM7.2081 39.076C6.1923 39.076 5.71662 37.816 6.4752 37.1474L41.8838 6.05887C42.2952 5.69889 42.9252 5.69889 43.3366 6.05887L78.771 37.1474C79.5294 37.816 79.0668 39.076 78.0378 39.076H7.2081ZM22.8295 54.1575V84.2178H12.1838V41.0046H73.0626V63.2472H46.9624V54.1575C46.9624 52.2546 45.4066 50.6989 43.5038 50.6989H26.3009C24.3852 50.6989 22.8295 52.2546 22.8295 54.1575ZM45.0338 63.273C43.9538 63.4272 43.1052 64.392 43.1052 65.4846C43.1181 73.1346 43.0795 83.832 43.1309 84.2178H24.758V54.1575C24.758 53.3217 25.4524 52.6275 26.3009 52.6275H43.5038C44.3395 52.6275 45.0338 53.3217 45.0338 54.1575V63.273ZM83.901 83.8961C83.901 84.0761 83.7594 84.2178 83.5926 84.2178H45.3423C45.2523 84.2178 45.0466 84.0762 45.0466 83.9088V65.4846C45.0466 65.3178 45.2138 65.1762 45.3423 65.1762C46.0881 65.1888 73.2678 65.1762 83.5926 65.1762C83.7594 65.1762 83.901 65.3178 83.901 65.4846V83.8961Z" fill="#181A20"/>
<path d="M43.5038 52.6274H26.301C25.4524 52.6274 24.7581 53.3217 24.7581 54.1574V84.2177H43.131C43.0795 83.8319 43.1181 73.1345 43.1052 65.4845C43.1052 64.3919 43.9539 63.4271 45.0338 63.2729V54.1574C45.0338 53.3217 44.3395 52.6274 43.5038 52.6274ZM30.2995 69.3803H28.9495C28.4095 69.3803 27.9852 68.9561 27.9852 68.4161C27.9852 67.8887 28.4095 67.4519 28.9495 67.4519H30.2995C30.8267 67.4519 31.2638 67.8887 31.2638 68.4161C31.2638 68.9561 30.8267 69.3803 30.2995 69.3803Z" fill="url(#paint0_linear_7941_3334)"/>
<path d="M11.8748 7.90979H26.712V11.8055H11.8748V7.90979Z" fill="url(#paint1_linear_7941_3334)"/>
<path d="M23.7424 13.7346V19.4175L14.8581 27.2218V13.7346H23.7424Z" fill="url(#paint2_linear_7941_3334)"/>
<path d="M48.3766 25.6403C48.3766 28.8032 45.7923 31.3875 42.6294 31.3875C39.4538 31.3875 36.8695 28.8032 36.8695 25.6403C36.8695 22.4518 39.4538 19.8674 42.6294 19.8674C45.7923 19.8674 48.3766 22.4518 48.3766 25.6403Z" fill="#DDDDDD"/>
<path d="M53.0052 71.283C51.128 71.283 49.598 72.813 49.598 74.6904C49.598 76.5804 51.128 78.1104 53.0052 78.1104C54.8952 78.1104 56.4123 76.5804 56.4123 74.6904C56.4123 72.813 54.8952 71.283 53.0052 71.283ZM53.0052 76.182C52.1952 76.182 51.5266 75.513 51.5266 74.6904C51.5266 73.8804 52.1952 73.212 53.0052 73.212C53.8281 73.212 54.4837 73.8804 54.4837 74.6904C54.4837 75.513 53.8281 76.182 53.0052 76.182Z" fill="#181A20"/>
<path d="M54.4837 74.6904C54.4837 75.513 53.8281 76.182 53.0052 76.182C52.1952 76.182 51.5266 75.513 51.5266 74.6904C51.5266 73.8804 52.1952 73.212 53.0052 73.212C53.8281 73.212 54.4837 73.8804 54.4837 74.6904Z" fill="#DDDDDD"/>
<path d="M75.9294 71.283C74.0526 71.283 72.5226 72.813 72.5226 74.6904C72.5226 76.5804 74.0526 78.1104 75.9294 78.1104C77.8068 78.1104 79.3368 76.5804 79.3368 74.6904C79.3368 72.813 77.8068 71.283 75.9294 71.283ZM75.9294 76.182C75.1068 76.182 74.451 75.513 74.451 74.6904C74.451 73.8804 75.1068 73.212 75.9294 73.212C76.7526 73.212 77.4078 73.8804 77.4078 74.6904C77.4078 75.513 76.7526 76.182 75.9294 76.182Z" fill="#181A20"/>
<path d="M77.4078 74.6904C77.4078 75.513 76.7526 76.182 75.9294 76.182C75.1068 76.182 74.451 75.513 74.451 74.6904C74.451 73.8804 75.1068 73.212 75.9294 73.212C76.7526 73.212 77.4078 73.8804 77.4078 74.6904Z" fill="#DDDDDD"/>
<path d="M64.4688 70.2245C65.436 70.2245 66.2232 71.0105 66.2232 71.9777C66.2232 72.5099 66.6552 72.9419 67.1874 72.9419C67.7196 72.9419 68.1516 72.5099 68.1516 71.9777C68.1516 70.2833 66.9942 68.8673 65.4336 68.4407V67.7249C65.4336 67.1927 65.0016 66.7607 64.4688 66.7607C63.9366 66.7607 63.5046 67.1927 63.5046 67.7249V68.4407C61.944 68.8673 60.7866 70.2833 60.7866 71.9777C60.7866 74.0081 62.439 75.6599 64.4688 75.6599C65.436 75.6599 66.2232 76.4471 66.2232 77.4143C66.2232 78.3809 65.436 79.1669 64.4688 79.1669C63.5022 79.1669 62.715 78.3809 62.715 77.4143C62.715 76.8821 62.283 76.4501 61.7508 76.4501C61.2186 76.4501 60.7866 76.8821 60.7866 77.4143C60.7866 79.1087 61.944 80.5247 63.5046 80.9513V81.6671C63.5046 82.1993 63.9366 82.6313 64.4688 82.6313C65.0016 82.6313 65.4336 82.1993 65.4336 81.6671V80.9513C66.9942 80.5247 68.1516 79.1087 68.1516 77.4143C68.1516 75.3839 66.4992 73.7315 64.4688 73.7315C63.5022 73.7315 62.715 72.9443 62.715 71.9777C62.715 71.0105 63.5022 70.2245 64.4688 70.2245Z" fill="#181A20"/>
</g>
</g>
<defs>
<linearGradient id="paint0_linear_7941_3334" x1="34.896" y1="52.6274" x2="34.896" y2="84.2177" gradientUnits="userSpaceOnUse">
<stop stop-color="#DDDDDD" stop-opacity="0"/>
<stop offset="1" stop-color="#DDDDDD"/>
</linearGradient>
<linearGradient id="paint1_linear_7941_3334" x1="19.2934" y1="7.90979" x2="19.2934" y2="11.8055" gradientUnits="userSpaceOnUse">
<stop stop-color="#DDDDDD" stop-opacity="0"/>
<stop offset="1" stop-color="#DDDDDD"/>
</linearGradient>
<linearGradient id="paint2_linear_7941_3334" x1="19.3002" y1="13.7346" x2="19.3002" y2="27.2218" gradientUnits="userSpaceOnUse">
<stop stop-color="#DDDDDD" stop-opacity="0"/>
<stop offset="1" stop-color="#DDDDDD"/>
</linearGradient>
<clipPath id="clip0_7941_3334">
<rect width="90" height="90" fill="white"/>
</clipPath>
<clipPath id="clip1_7941_3334">
<rect width="90" height="90" fill="white"/>
</clipPath>
</defs>
</svg>
