<svg width="113" height="35" viewBox="0 0 113 35" fill="none" xmlns="http://www.w3.org/2000/svg">
<rect width="35" height="35" rx="6" fill="white"/>
<path d="M22.45 20.0499C22.45 20.6499 22.2333 21.1666 21.8 21.5999C21.3667 22.0332 20.8333 22.2499 20.2 22.2499H13.1C12.5 22.2499 11.9833 22.0332 11.55 21.5999C11.1167 21.1666 10.9 20.6499 10.9 20.0499V12.9499C10.8667 12.3166 11.0667 11.7832 11.5 11.3499C11.9333 10.9166 12.4667 10.6999 13.1 10.6999H17.1V9.8499H13.1C12.7 9.8499 12.3083 9.9249 11.925 10.0749C11.5417 10.2249 11.2 10.4499 10.9 10.7499C10.6 11.0499 10.375 11.3916 10.225 11.7749C10.075 12.1582 10 12.5499 10 12.9499V20.0499C10 20.4499 10.075 20.8416 10.225 21.2249C10.375 21.6082 10.6 21.9499 10.9 22.2499C11.2 22.5499 11.5417 22.7749 11.925 22.9249C12.3083 23.0749 12.7 23.1499 13.1 23.1499H20.2C20.6 23.1499 20.9917 23.0749 21.375 22.9249C21.7583 22.7749 22.1 22.5499 22.4 22.2499C22.7 21.9499 22.925 21.6082 23.075 21.2249C23.225 20.8416 23.3 20.4499 23.3 20.0499V16.0499H22.45V20.0499ZM22.85 9.8499H18.85V10.6999H21.8L16.35 16.1999L16.95 16.7999L22.45 11.3499V14.2499H23.3V10.2999C23.3 10.1666 23.2583 10.0582 23.175 9.9749C23.0917 9.89157 22.9833 9.8499 22.85 9.8499Z" fill="#181A20"/>
<rect x="39" width="35" height="35" rx="6" fill="white"/>
<g clip-path="url(#clip0_7941_3549)">
<path d="M56.4004 23.25C56.0671 23.25 55.7587 23.1833 55.4754 23.05C55.1921 22.9167 54.9504 22.7167 54.7504 22.45L50.1004 16.75C49.5337 16.1833 49.1671 15.525 49.0004 14.775C48.8337 14.025 48.8754 13.2833 49.1254 12.55C49.3754 11.8167 49.8004 11.2 50.4004 10.7C51.0004 10.2 51.6837 9.9 52.4504 9.8C53.2171 9.7 53.9587 9.80833 54.6754 10.125C55.3921 10.4417 55.9671 10.9167 56.4004 11.55C56.5337 11.35 56.7004 11.15 56.9004 10.95C57.4337 10.4167 58.0504 10.0583 58.7504 9.875C59.4504 9.69167 60.1504 9.69167 60.8504 9.875C61.5504 10.0583 62.1671 10.4083 62.7004 10.925C63.2337 11.4417 63.5921 12.0583 63.7754 12.775C63.9587 13.4917 63.9587 14.2 63.7754 14.9C63.5921 15.6 63.2337 16.2167 62.7004 16.75L58.0504 22.45C57.8504 22.7167 57.6087 22.9167 57.3254 23.05C57.0421 23.1833 56.7337 23.25 56.4004 23.25ZM53.0004 10.75C52.3671 10.75 51.7921 10.925 51.2754 11.275C50.7587 11.625 50.3837 12.0917 50.1504 12.675C49.9171 13.2583 49.8587 13.85 49.9754 14.45C50.0921 15.05 50.3671 15.5833 50.8004 16.05L55.5504 21.8C55.7504 22.0667 56.0254 22.2 56.3754 22.2C56.7254 22.2 57.0171 22.0667 57.2504 21.8L62.0004 16.05C62.4337 15.5833 62.7171 15.0333 62.8504 14.4C62.9837 13.7667 62.9171 13.1583 62.6504 12.575C62.3837 11.9917 61.9837 11.5333 61.4504 11.2C60.9171 10.8667 60.3254 10.7083 59.6754 10.725C59.0254 10.7417 58.4504 10.9417 57.9504 11.325C57.4504 11.7083 57.0837 12.2 56.8504 12.8C56.8171 12.9 56.7587 12.9833 56.6754 13.05C56.5921 13.1167 56.5004 13.15 56.4004 13.15C56.3004 13.15 56.2087 13.1167 56.1254 13.05C56.0421 12.9833 55.9837 12.9 55.9504 12.8C55.7171 12.2 55.3337 11.7083 54.8004 11.325C54.2671 10.9417 53.6671 10.75 53.0004 10.75Z" fill="#181A20"/>
</g>
<rect x="78" width="35" height="35" rx="6" fill="white"/>
<path d="M100.95 13.7999C100.683 13.5332 100.367 13.3999 100 13.3999H97.75V11.1499C97.75 10.7832 97.625 10.4749 97.375 10.2249C97.125 9.9749 96.8167 9.8499 96.45 9.8499H89.3C88.9333 9.8499 88.625 9.9749 88.375 10.2249C88.125 10.4749 88 10.7832 88 11.1499V18.2999C88 18.6666 88.125 18.9749 88.375 19.2249C88.625 19.4749 88.9333 19.5999 89.3 19.5999H91.55V21.8499C91.55 22.2166 91.675 22.5249 91.925 22.7749C92.175 23.0249 92.4833 23.1499 92.85 23.1499H100C100.367 23.1499 100.675 23.0249 100.925 22.7749C101.175 22.5249 101.3 22.2166 101.3 21.8499V14.6999C101.3 14.3332 101.183 14.0332 100.95 13.7999ZM89.3 18.6999C89.2 18.6999 89.1083 18.6582 89.025 18.5749C88.9417 18.4916 88.9 18.3832 88.9 18.2499V11.1499C88.9 11.0499 88.9417 10.9499 89.025 10.8499C89.1083 10.7499 89.2 10.6999 89.3 10.6999H96.45C96.55 10.6999 96.6417 10.7499 96.725 10.8499C96.8083 10.9499 96.85 11.0499 96.85 11.1499V13.3999H92.9C92.5 13.3999 92.175 13.5249 91.925 13.7749C91.675 14.0249 91.55 14.3332 91.55 14.6999V18.6999H89.3ZM100.45 21.8499C100.45 21.9499 100.4 22.0416 100.3 22.1249C100.2 22.2082 100.1 22.2666 100 22.2999H92.9C92.7667 22.2666 92.6583 22.2082 92.575 22.1249C92.4917 22.0416 92.45 21.9499 92.45 21.8499V14.6999C92.45 14.5999 92.4917 14.5082 92.575 14.4249C92.6583 14.3416 92.7667 14.2999 92.9 14.2999H100C100.1 14.2999 100.2 14.3416 100.3 14.4249C100.4 14.5082 100.45 14.6166 100.45 14.7499V21.8499ZM96.85 16.4999H96V17.8499H94.65V18.6999H96V20.0499H96.85V18.6999H98.2V17.8499H96.85V16.4999Z" fill="#181A20"/>
<defs>
<clipPath id="clip0_7941_3549">
<rect width="15" height="15" fill="white" transform="matrix(1 0 0 -1 49 24)"/>
</clipPath>
</defs>
</svg>
