<svg width="20" height="20" viewBox="0 0 20 20" fill="none" xmlns="http://www.w3.org/2000/svg">
<path d="M4.37501 3.3335H15.625C16.3168 3.33345 16.9824 3.59812 17.4852 4.07322C17.988 4.54832 18.29 5.19782 18.3292 5.8885L18.3333 6.04183V13.9585C18.3334 14.6503 18.0687 15.3159 17.5936 15.8187C17.1185 16.3215 16.469 16.6235 15.7783 16.6627L15.625 16.6668H4.37501C3.68322 16.6669 3.01765 16.4022 2.51481 15.9271C2.01198 15.452 1.71 14.8025 1.67084 14.1118L1.66667 13.9585V6.04183C1.66663 5.35005 1.9313 4.68447 2.4064 4.18164C2.8815 3.6788 3.531 3.37683 4.22167 3.33766L4.37501 3.3335ZM17.0833 7.811L10.2917 11.386C10.215 11.4265 10.1307 11.4506 10.0442 11.4568C9.95768 11.463 9.87083 11.451 9.78917 11.4218L9.70917 11.3868L2.91667 7.81183V13.9585C2.91669 14.3245 3.05431 14.6771 3.30224 14.9463C3.55016 15.2155 3.89025 15.3817 4.255 15.4118L4.37501 15.4168H15.625C15.9911 15.4168 16.3438 15.2791 16.6131 15.031C16.8823 14.7829 17.0484 14.4426 17.0783 14.0777L17.0833 13.9585V7.811ZM15.625 4.5835H4.37501C4.00901 4.58351 3.65641 4.72114 3.38718 4.96906C3.11795 5.21699 2.95179 5.55708 2.92167 5.92183L2.91667 6.04183V6.39933L10 10.1277L17.0833 6.3985V6.04183C17.0833 5.67571 16.9456 5.32299 16.6975 5.05374C16.4494 4.78449 16.1091 4.61841 15.7442 4.5885L15.625 4.5835Z" fill="white"/>
</svg>
