<svg width="16" height="16" viewBox="0 0 16 16" fill="none" xmlns="http://www.w3.org/2000/svg">
<path d="M5.65333 0.906594H8.53333V1.81326H5.65333V0.906594ZM13.28 13.7066C13.28 13.8133 13.2267 13.9199 13.12 14.0266C13.0133 14.1333 12.9067 14.1866 12.8 14.1866H10.88V15.0933H12.8C13.1911 15.0933 13.52 14.9599 13.7867 14.6933C14.0533 14.4266 14.1867 14.0977 14.1867 13.7066V11.7866H13.28V13.7066ZM12.8 0.906594H10.88V1.81326H12.8C12.9067 1.81326 13.0133 1.86659 13.12 1.97326C13.2267 2.07993 13.28 2.18659 13.28 2.29326V4.21326H14.1867V2.29326C14.1867 1.90215 14.0533 1.57326 13.7867 1.30659C13.52 1.03993 13.1911 0.906594 12.8 0.906594ZM0.906667 2.29326C0.906667 2.18659 0.96 2.07993 1.06667 1.97326C1.17333 1.86659 1.28 1.81326 1.38667 1.81326H3.30667V0.906594H1.38667C0.995556 0.906594 0.666667 1.03993 0.4 1.30659C0.133333 1.57326 0 1.90215 0 2.29326V4.21326H0.906667V2.29326ZM13.28 6.55993H14.1867V9.43993H13.28V6.55993ZM10.88 7.51993V4.69326C10.88 4.55104 10.8356 4.43548 10.7467 4.34659C10.6578 4.25771 10.5422 4.21326 10.4 4.21326H7.57333V5.17326H9.28L6.77333 7.67993C6.56 7.57326 6.34667 7.51993 6.13333 7.51993H1.38667C1.24444 7.51993 1.08444 7.55548 0.906667 7.6266V6.55993H0V13.7066C0 14.0977 0.133333 14.4266 0.4 14.6933C0.666667 14.9599 0.995556 15.0933 1.38667 15.0933H8.53333V14.1866H7.46667C7.53778 14.0088 7.57333 13.8488 7.57333 13.7066V8.95993C7.57333 8.74659 7.52 8.53326 7.41333 8.31993L9.92 5.81326V7.51993H10.88ZM1.38667 14.1866C1.28 14.1866 1.17333 14.1333 1.06667 14.0266C0.96 13.9199 0.906667 13.8133 0.906667 13.7066V8.95993C0.906667 8.81771 0.96 8.70215 1.06667 8.61326C1.17333 8.52437 1.28 8.47993 1.38667 8.47993H6.13333C6.27556 8.47993 6.39111 8.52437 6.48 8.61326C6.56889 8.70215 6.61333 8.81771 6.61333 8.95993V13.7066C6.61333 13.8133 6.56889 13.9199 6.48 14.0266C6.39111 14.1333 6.27556 14.1866 6.13333 14.1866H1.38667Z" fill="#181A20"/>
</svg>
