<svg width="16" height="16" viewBox="0 0 16 16" fill="none" xmlns="http://www.w3.org/2000/svg">
<path d="M13.8133 8.90677L13.7067 8.85343V4.21343C13.7067 3.57343 13.4756 3.01343 13.0133 2.53343C12.5511 2.05343 12 1.81343 11.36 1.81343H2.82667C2.18667 1.81343 1.63556 2.05343 1.17333 2.53343C0.711111 3.01343 0.48 3.57343 0.48 4.21343V8.85343L0.426667 8.90677C0.142222 9.19121 0 9.52899 0 9.9201V13.7068C0 13.8134 0.0444444 13.9201 0.133333 14.0268C0.222222 14.1334 0.337778 14.1868 0.48 14.1868H2.82667C3.00444 14.1868 3.12889 14.1157 3.2 13.9734L4.05333 12.7468H10.1867L10.9867 13.9734C11.0578 14.1157 11.1822 14.1868 11.36 14.1868H13.76C13.8667 14.1868 13.9644 14.1334 14.0533 14.0268C14.1422 13.9201 14.1867 13.8134 14.1867 13.7068V9.9201C14.1867 9.52899 14.0622 9.19121 13.8133 8.90677ZM2.82667 2.77343H11.36C11.7511 2.77343 12.0889 2.91566 12.3733 3.2001C12.6578 3.48454 12.8 3.82232 12.8 4.21343V7.0401C12.5867 6.75566 12.3111 6.52455 11.9733 6.34677C11.6356 6.16899 11.2711 6.09788 10.88 6.13343H3.30667C2.63111 6.09788 2.08 6.31121 1.65333 6.77343L1.38667 7.09343V4.21343C1.38667 3.82232 1.52889 3.48454 1.81333 3.2001C2.09778 2.91566 2.43556 2.77343 2.82667 2.77343ZM12.32 8.4801H1.86667C1.86667 8.08899 2.00889 7.75121 2.29333 7.46677C2.57778 7.18232 2.91556 7.0401 3.30667 7.0401H10.88C11.2711 7.0401 11.6089 7.18232 11.8933 7.46677C12.1778 7.75121 12.32 8.08899 12.32 8.4801ZM13.28 13.2268H11.6267L10.8267 12.0001C10.72 11.8579 10.5778 11.7868 10.4 11.7868H3.78667C3.60889 11.7868 3.46667 11.8579 3.36 12.0001L2.56 13.2268H0.906667V9.9201C0.906667 9.77788 0.96 9.66232 1.06667 9.57343C1.17333 9.48455 1.28 9.4401 1.38667 9.4401H12.8C12.9067 9.4401 13.0133 9.48455 13.12 9.57343C13.2267 9.66232 13.28 9.77788 13.28 9.9201V13.2268Z" fill="#181A20"/>
</svg>
