<svg width="15" height="15" viewBox="0 0 15 15" fill="none" xmlns="http://www.w3.org/2000/svg">
<g clip-path="url(#clip0_7941_3521)">
<path d="M15 0.65V10.35C15 10.5167 14.9417 10.6667 14.825 10.8C14.7083 10.9333 14.5583 11 14.375 11C14.1917 11 14.0333 10.9333 13.9 10.8C13.7667 10.6667 13.7 10.5167 13.7 10.35V2.2L1.1 14.8C0.966667 14.9333 0.808333 15 0.625 15C0.441667 15 0.291667 14.9417 0.175 14.825C0.0583333 14.7083 0 14.5583 0 14.375C0 14.1917 0.0666667 14.0333 0.2 13.9L12.8 1.3H4.65C4.48333 1.3 4.33333 1.23333 4.2 1.1C4.06667 0.966666 4 0.808333 4 0.625C4 0.441667 4.06667 0.291666 4.2 0.175C4.33333 0.0583334 4.48333 0 4.65 0H14.35C14.55 0 14.7083 0.0583334 14.825 0.175C14.9417 0.291666 15 0.45 15 0.65Z" fill="white"/>
</g>
<defs>
<clipPath id="clip0_7941_3521">
<rect width="15" height="15" fill="white" transform="matrix(1 0 0 -1 0 15)"/>
</clipPath>
</defs>
</svg>
