<svg width="90" height="125" viewBox="0 0 90 125" fill="none" xmlns="http://www.w3.org/2000/svg">
<g clip-path="url(#clip0_7941_3399)">
<g clip-path="url(#clip1_7941_3399)">
<path d="M34.4433 44.0988H20.7211C20.1888 44.0988 19.7568 44.5307 19.7568 45.0631V60.2544C19.7568 60.7866 20.1888 61.2186 20.7211 61.2186C21.2535 61.2186 21.6854 60.7866 21.6854 60.2544V46.0273H34.4433C34.9757 46.0273 35.4077 45.5955 35.4077 45.0631C35.4077 44.5307 34.9757 44.0988 34.4433 44.0988Z" fill="#EB6753"/>
<path d="M20.7211 62.91C20.1888 62.91 19.7568 63.342 19.7568 63.8742V65.406C19.7568 65.9382 20.1888 66.3702 20.7211 66.3702C21.2535 66.3702 21.6854 65.9382 21.6854 65.406V63.8742C21.6854 63.342 21.2535 62.91 20.7211 62.91Z" fill="#EB6753"/>
<path d="M75.0451 24.793C75.3133 24.793 75.5803 24.6825 75.7705 24.4653C76.1221 24.0648 76.0825 23.4558 75.6817 23.1043L64.7461 13.5079C64.3465 13.1563 63.7363 13.1965 63.3859 13.5958C63.0343 13.9963 63.0739 14.6053 63.4741 14.9568L74.4097 24.5532C74.5927 24.7139 74.8201 24.793 75.0451 24.793Z" fill="#EB6753"/>
<path d="M61.4597 12.8725C61.7279 12.8725 61.9937 12.762 62.1845 12.5448C62.5361 12.1443 62.4965 11.5353 62.0969 11.1838L61.6163 10.7619C61.2161 10.4103 60.6077 10.4505 60.2555 10.8497C59.9039 11.2503 59.9435 11.8592 60.3431 12.2108L60.8237 12.6327C61.0067 12.7934 61.2335 12.8725 61.4597 12.8725Z" fill="#EB6753"/>
<path d="M75.2815 51.2196V40.9982H80.4241C83.2141 40.9982 84.5131 37.5396 82.4173 35.7011L46.9829 4.61252C45.8515 3.60963 44.1286 3.60963 42.9971 4.61252L28.0443 17.7267V13.7282H29.4715C30.32 13.7282 31.0143 13.0468 31.0143 12.1853V7.51815C31.0143 6.66963 30.32 5.97538 29.4715 5.97538H13.8758C13.0272 5.97538 12.3329 6.66963 12.3329 7.51815V12.1853C12.3329 13.0468 13.0272 13.7282 13.8758 13.7282H15.3029V28.9125L7.58862 35.7011C5.48005 37.5396 6.79146 40.9982 9.58146 40.9982H14.7372V84.2112H12.0115C11.4843 84.2112 11.0472 84.648 11.0472 85.1754C11.0472 85.7022 11.4843 86.1396 12.0115 86.1396H77.9947C78.5341 86.1396 78.9589 85.7022 78.9589 85.1754C78.9589 84.648 78.5341 84.2112 77.9947 84.2112H75.2815V73.8612C79.9873 72.2538 83.3941 67.7922 83.3941 62.5338C83.3941 57.2882 79.9873 52.8268 75.2815 51.2196ZM14.2615 11.7996V7.90395H29.0857V11.7996H14.2615ZM26.1157 13.7411V19.4239L17.2315 27.2153V13.7411H26.1157ZM9.58146 39.0696C8.56578 39.0696 8.0901 37.8096 8.84862 37.1411L44.27 6.05253C44.4758 5.87251 44.7329 5.7825 44.99 5.7825C45.2471 5.7825 45.5043 5.87251 45.71 6.05253L81.1441 37.1411C81.9031 37.8096 81.4399 39.0696 80.4241 39.0696H9.58146ZM73.3531 84.2112C50.03 84.2112 51.4186 84.2112 16.6658 84.2112V40.9982H73.3531V50.7311C68.2357 49.8954 62.9257 52.5182 60.5989 57.4554H45.9671V53.1996C45.9671 50.9496 44.1544 49.1367 41.9044 49.1367C39.68 49.1367 37.8543 50.9625 37.8543 53.1996V71.8938C37.8543 74.1054 39.6415 75.957 41.9044 75.957C44.1544 75.957 45.9671 74.1312 45.9671 71.8938V67.6254H60.5989C62.6299 71.9328 66.9241 74.517 71.4241 74.517C72.0415 74.517 72.8389 74.4396 73.3531 74.3496V84.2112ZM59.8657 65.697H39.7829V59.3839C39.7829 59.3839 42.1743 59.3968 59.8657 59.3839C59.3644 61.248 59.2871 63.5496 59.8657 65.697ZM44.0386 67.6254V71.8938C44.0386 73.0638 43.0871 74.028 41.9044 74.028C40.7471 74.028 39.7829 73.077 39.7829 71.8938V67.6254H44.0386ZM39.7829 57.4554V53.1996C39.7829 52.0168 40.7343 51.0653 41.9044 51.0653C43.0871 51.0653 44.0386 52.0296 44.0386 53.1996V57.4554H39.7829ZM71.4241 72.588C68.8141 72.588 66.4489 71.5722 64.6489 69.9396C62.8615 68.307 61.6657 66.0438 61.4215 63.5496C60.8299 57.6096 65.5489 52.5054 71.4241 52.5054C76.9273 52.5054 81.4657 56.9925 81.4657 62.5338C81.4657 68.1396 76.8757 72.588 71.4241 72.588Z" fill="#181A20"/>
<path d="M71.424 52.5054C65.5488 52.5054 60.8298 57.6096 61.4214 63.5496C61.6656 66.0438 62.8614 68.307 64.6488 69.9396C66.4482 71.5728 68.814 72.588 71.424 72.588C76.8756 72.588 81.4656 68.1396 81.4656 62.5338C81.4656 56.9925 76.9272 52.5054 71.424 52.5054ZM74.0088 66.828C71.643 66.828 69.7272 64.8996 69.7272 62.547C69.7272 60.1812 71.643 58.2525 74.0088 58.2525C76.374 58.2525 78.303 60.1812 78.303 62.547C78.303 64.8996 76.374 66.828 74.0088 66.828Z" fill="url(#paint0_linear_7941_3399)"/>
<path d="M44.0385 53.1996V57.4554H39.7828V53.1996C39.7828 52.0168 40.7343 51.0653 41.9043 51.0653C43.0871 51.0653 44.0385 52.0296 44.0385 53.1996Z" fill="#DDDDDD"/>
<path d="M44.0385 67.6254V71.8938C44.0385 73.0638 43.0871 74.028 41.9043 74.028C40.7471 74.028 39.7828 73.077 39.7828 71.8938V67.6254H44.0385Z" fill="#DDDDDD"/>
<path d="M14.2611 7.90454H29.0854V11.8003H14.2611V7.90454Z" fill="url(#paint1_linear_7941_3399)"/>
<path d="M26.1157 13.7411V19.4239L17.2314 27.2154V13.7411H26.1157Z" fill="url(#paint2_linear_7941_3399)"/>
<path d="M45.0028 18.0226C40.8113 18.0226 37.3914 21.4425 37.3914 25.634C37.3914 29.8254 40.8113 33.2325 45.0028 33.2325C49.1942 33.2325 52.6014 29.8254 52.6014 25.634C52.6014 21.4425 49.1942 18.0226 45.0028 18.0226ZM45.0028 31.3039C41.8785 31.3039 39.3199 28.7583 39.3199 25.634C39.3199 22.4968 41.8785 19.9512 45.0028 19.9512C48.127 19.9512 50.6728 22.4968 50.6728 25.634C50.6728 28.7583 48.127 31.3039 45.0028 31.3039Z" fill="#181A20"/>
<path d="M50.6728 25.6339C50.6728 28.7582 48.127 31.3039 45.0028 31.3039C41.8785 31.3039 39.3199 28.7582 39.3199 25.6339C39.3199 22.4967 41.8785 19.951 45.0028 19.951C48.127 19.951 50.6728 22.4967 50.6728 25.6339Z" fill="#DDDDDD"/>
<path d="M51.2381 72.648H51.8238C52.3562 72.648 52.7881 72.2166 52.7881 71.6838C52.7881 71.1516 52.3562 70.7196 51.8238 70.7196H51.2381C50.7057 70.7196 50.2738 71.1516 50.2738 71.6838C50.2738 72.2166 50.7057 72.648 51.2381 72.648Z" fill="#EB6753"/>
<path d="M55.1046 72.648H60.411C60.9438 72.648 61.3758 72.2166 61.3758 71.6838C61.3758 71.1516 60.9438 70.7196 60.411 70.7196H55.1046C54.5722 70.7196 54.1403 71.1516 54.1403 71.6838C54.1403 72.2166 54.5722 72.648 55.1046 72.648Z" fill="#EB6753"/>
<path d="M74.0088 58.2524C71.643 58.2524 69.7272 60.1811 69.7272 62.5469C69.7272 64.8995 71.643 66.8279 74.0088 66.8279C76.374 66.8279 78.303 64.8995 78.303 62.5469C78.303 60.1811 76.374 58.2524 74.0088 58.2524ZM74.0088 64.8995C72.7098 64.8995 71.6556 63.8453 71.6556 62.5469C71.6556 61.2479 72.7098 60.1811 74.0088 60.1811C75.3072 60.1811 76.374 61.2479 76.374 62.5469C76.374 63.8453 75.3072 64.8995 74.0088 64.8995Z" fill="#181A20"/>
</g>
</g>
<defs>
<linearGradient id="paint0_linear_7941_3399" x1="71.4186" y1="52.5054" x2="71.4186" y2="72.588" gradientUnits="userSpaceOnUse">
<stop stop-color="#DDDDDD" stop-opacity="0"/>
<stop offset="1" stop-color="#DDDDDD"/>
</linearGradient>
<linearGradient id="paint1_linear_7941_3399" x1="21.6732" y1="7.90454" x2="21.6732" y2="11.8003" gradientUnits="userSpaceOnUse">
<stop stop-color="#DDDDDD" stop-opacity="0"/>
<stop offset="1" stop-color="#DDDDDD"/>
</linearGradient>
<linearGradient id="paint2_linear_7941_3399" x1="21.6736" y1="13.7411" x2="21.6736" y2="27.2154" gradientUnits="userSpaceOnUse">
<stop stop-color="#DDDDDD" stop-opacity="0"/>
<stop offset="1" stop-color="#DDDDDD"/>
</linearGradient>
<clipPath id="clip0_7941_3399">
<rect width="90" height="90" fill="white"/>
</clipPath>
<clipPath id="clip1_7941_3399">
<rect width="90" height="90" fill="white"/>
</clipPath>
</defs>
</svg>
