<svg width="90" height="125" viewBox="0 0 90 125" fill="none" xmlns="http://www.w3.org/2000/svg">
<g clip-path="url(#clip0_7941_3367)">
<g clip-path="url(#clip1_7941_3367)">
<path d="M5.75042 57.7231C6.28279 57.7231 6.71473 57.2912 6.71473 56.7588V56.3282C6.71473 55.7958 6.28279 55.3639 5.75042 55.3639C5.21805 55.3639 4.78613 55.7958 4.78613 56.3282V56.7588C4.78613 57.2912 5.21805 57.7231 5.75042 57.7231Z" fill="#EB6753"/>
<path d="M4.78613 74.0772C4.78613 74.6094 5.21805 75.0414 5.75042 75.0414C6.28279 75.0414 6.71473 74.6094 6.71473 74.0772V60.1074C6.71473 59.5751 6.28279 59.1432 5.75042 59.1432C5.21805 59.1432 4.78613 59.5751 4.78613 60.1074V74.0772Z" fill="#EB6753"/>
<path d="M62.1612 16.0266C61.7604 15.675 61.1526 15.714 60.7998 16.1145C60.4488 16.515 60.4884 17.124 60.888 17.4755L72.0426 27.264C72.4422 27.6144 73.0512 27.5772 73.4034 27.1761C73.755 26.7756 73.7148 26.1666 73.3158 25.8151L62.1612 16.0266Z" fill="#EB6753"/>
<path d="M58.2726 12.6151C57.8721 12.266 57.2643 12.3049 56.9115 12.7054C56.5612 13.106 56.6014 13.7149 57.002 14.0665L57.6938 14.673C58.1006 15.0268 58.7065 14.979 59.0548 14.5825C59.4051 14.182 59.3649 13.573 58.9644 13.2215L58.2726 12.6151Z" fill="#EB6753"/>
<path d="M73.1022 52.6294V49.7494H74.2206C74.7474 49.7494 75.1848 49.3252 75.1848 48.7852C75.1848 48.258 74.7474 47.8209 74.2206 47.8209H72.4848V41.148H75.4032C78.129 41.148 79.4148 37.7666 77.3574 35.9665L43.0547 5.868C41.949 4.89084 40.2647 4.89084 39.1461 5.868L24.7333 18.5194V14.7523H26.0834C26.919 14.7523 27.6005 14.0709 27.6005 13.2223V8.70935C27.6005 7.86083 26.919 7.17935 26.0834 7.17935H10.9762C10.1405 7.17935 9.4591 7.86083 9.4591 8.70935V13.2223C9.4591 14.0708 10.1405 14.7523 10.9762 14.7523H12.339V29.4094L4.86906 35.9666C2.82473 37.7666 4.09758 41.148 6.8233 41.148H9.74188V82.8564C8.73898 82.8822 7.71046 82.8949 6.70762 82.9207C6.16756 82.9465 5.7562 83.3839 5.76899 83.9107C5.78186 84.438 6.2062 84.8497 6.7333 84.8497H6.74614C7.36336 84.8364 69.9906 84.8748 69.9906 84.8623C78.9132 84.798 86.139 77.5207 86.139 68.5723C86.139 60.7039 80.5332 54.1337 73.1022 52.6294ZM11.3876 12.8237V9.10793H25.6719V12.8237H11.3876ZM22.8047 14.7523V20.2165L14.2676 27.7123V14.7523H22.8047ZM6.8233 39.2194C5.87186 39.2194 5.42189 38.0365 6.14188 37.4065L40.419 7.30799C40.8176 6.97367 41.3961 6.97367 41.7819 7.30799L76.0848 37.4065C76.8048 38.0365 76.3548 39.2194 75.4032 39.2194H6.8233ZM41.6276 82.8181H22.059V53.8637C22.059 53.0537 22.7148 52.4108 23.5247 52.4108H40.1747C40.9718 52.4108 41.6276 53.0537 41.6276 53.8637V82.8181ZM43.5561 82.8181V53.8637C43.5561 51.9994 42.039 50.4823 40.1747 50.4823H23.5247C21.6605 50.4823 20.1305 51.9994 20.1305 53.8637V82.8181H11.6705V41.1608H70.5564V47.8209H65.4522C64.9116 47.8209 64.4874 48.258 64.4874 48.7852C64.4874 49.3252 64.9116 49.7494 65.4522 49.7494H66.6216V52.6294C59.1647 54.1466 53.5847 60.8449 53.5847 68.5723V68.5849C53.5976 74.6665 57.0433 80.0665 62.109 82.8181H43.5561ZM71.1732 49.7494V52.3594C70.479 52.2951 69.309 52.2951 68.5506 52.3594V49.7494H71.1732ZM69.8748 82.9339C61.8522 82.9339 55.5133 76.3507 55.5133 68.5723C55.5133 60.7039 62.019 54.1079 70.119 54.2366C77.8332 54.378 84.2106 60.6781 84.2106 68.5723C84.2106 76.4923 77.7816 82.9339 69.8748 82.9339Z" fill="#181A20"/>
<path d="M71.1732 49.7494V52.3594C70.479 52.2951 69.309 52.2951 68.5506 52.3594V49.7494H71.1732Z" fill="#DDDDDD"/>
<path d="M11.3876 9.10791H25.6718V12.8237H11.3876V9.10791Z" fill="url(#paint0_linear_7941_3367)"/>
<path d="M22.8047 14.7522V20.2165L14.2676 27.7123V14.7522H22.8047Z" fill="url(#paint1_linear_7941_3367)"/>
<path d="M40.1748 52.4108H23.5248C22.7148 52.4108 22.0591 53.0536 22.0591 53.8636V82.818H41.6276V53.8636C41.6276 53.0536 40.9719 52.4108 40.1748 52.4108ZM37.7448 68.6238H36.4333C35.8934 68.6238 35.4691 68.1996 35.4691 67.6596C35.4691 67.1322 35.8934 66.6948 36.4333 66.6948H37.7448C38.2719 66.6948 38.7091 67.1322 38.7091 67.6596C38.7091 68.1996 38.2719 68.6238 37.7448 68.6238Z" fill="url(#paint2_linear_7941_3367)"/>
<path d="M41.1262 18.7637C36.9991 18.7637 33.6434 22.1194 33.6434 26.2466C33.6434 30.3608 36.9991 33.7037 41.1262 33.7037C45.2405 33.7037 48.5834 30.3608 48.5834 26.2466C48.5834 22.1194 45.2405 18.7637 41.1262 18.7637ZM41.1262 31.7751C38.0662 31.7751 35.572 29.2937 35.572 26.2466C35.572 23.1866 38.0662 20.6923 41.1262 20.6923C44.1734 20.6923 46.6548 23.1865 46.6548 26.2466C46.6548 29.2937 44.1734 31.7751 41.1262 31.7751Z" fill="#181A20"/>
<path d="M46.6548 26.2465C46.6548 29.2936 44.1734 31.775 41.1262 31.775C38.0662 31.775 35.572 29.2936 35.572 26.2465C35.572 23.1865 38.0662 20.6921 41.1262 20.6921C44.1734 20.6921 46.6548 23.1865 46.6548 26.2465Z" fill="#DDDDDD"/>
<path d="M38.7091 67.6596C38.7091 68.1996 38.2719 68.6238 37.7448 68.6238H36.4333C35.8934 68.6238 35.4691 68.1996 35.4691 67.6596C35.4691 67.1322 35.8934 66.6948 36.4333 66.6948H37.7448C38.2719 66.6948 38.7091 67.1322 38.7091 67.6596Z" fill="#181A20"/>
<path d="M57.4 53.5658C57.6071 53.5658 57.8168 53.4993 57.9938 53.3599C58.142 53.2444 58.2927 53.1289 58.4446 53.0184C58.8753 52.7045 58.9694 52.1018 58.6568 51.6711C58.3429 51.2404 57.7402 51.1438 57.3095 51.459C57.1376 51.5845 56.9693 51.7126 56.8036 51.8431C56.3842 52.1709 56.3114 52.7773 56.6404 53.1967C56.83 53.439 57.1137 53.5658 57.4 53.5658Z" fill="#EB6753"/>
<path d="M49.8351 65.2692C49.9029 65.2842 49.9707 65.2902 50.0385 65.2902C50.4829 65.2902 50.8835 64.9806 50.9802 64.5282C51.7084 61.1298 53.3557 57.9793 55.7451 55.4192C56.1093 55.0299 56.0879 54.4197 55.6987 54.0569C55.3095 53.6927 54.7005 53.7141 54.3364 54.1033C51.7084 56.9196 49.8954 60.3852 49.0943 64.1238C48.9826 64.6452 49.314 65.1576 49.8351 65.2692Z" fill="#EB6753"/>
<path d="M69.8706 57.6453C69.3378 57.6453 68.9064 58.0772 68.9064 58.6096C68.9064 59.142 69.3378 59.5738 69.8706 59.5738C74.8338 59.5738 78.8718 63.612 78.8718 68.5752C78.8718 73.5432 74.8338 77.5866 69.8706 77.5866C66.7026 77.5866 63.8238 75.969 62.1726 73.2594C61.8948 72.8064 61.3026 72.6618 60.8466 72.9384C60.3918 73.2156 60.2478 73.8096 60.525 74.2644C62.5302 77.5524 66.0246 79.515 69.8706 79.515C75.897 79.515 80.8002 74.607 80.8002 68.5752C80.8002 62.5482 75.897 57.6453 69.8706 57.6453Z" fill="#181A20"/>
<path d="M70.8264 66.9648V63.0948C70.8264 62.568 70.4016 62.1306 69.8622 62.1306C69.3348 62.1306 68.8974 62.568 68.8974 63.0948V66.9648C67.5348 67.3764 66.5316 68.6364 66.5316 70.1406C66.5316 71.9796 68.0232 73.4706 69.8622 73.4706C71.7006 73.4706 73.2048 71.9796 73.2048 70.1406C73.2048 68.6364 72.2022 67.3764 70.8264 66.9648ZM69.8622 71.5422C69.0906 71.5422 68.4606 70.9122 68.4606 70.1406C68.4606 69.3696 69.0906 68.7264 69.8622 68.7264C70.6332 68.7264 71.2764 69.3696 71.2764 70.1406C71.2764 70.9122 70.6332 71.5422 69.8622 71.5422Z" fill="#181A20"/>
<path d="M71.2764 70.1406C71.2764 70.9122 70.6332 71.5422 69.8622 71.5422C69.0906 71.5422 68.4606 70.9122 68.4606 70.1406C68.4606 69.369 69.0906 68.7264 69.8622 68.7264C70.6332 68.7264 71.2764 69.369 71.2764 70.1406Z" fill="#DDDDDD"/>
</g>
</g>
<defs>
<linearGradient id="paint0_linear_7941_3367" x1="18.5297" y1="9.10791" x2="18.5297" y2="12.8237" gradientUnits="userSpaceOnUse">
<stop stop-color="#DDDDDD" stop-opacity="0"/>
<stop offset="1" stop-color="#DDDDDD"/>
</linearGradient>
<linearGradient id="paint1_linear_7941_3367" x1="18.5362" y1="14.7522" x2="18.5362" y2="27.7123" gradientUnits="userSpaceOnUse">
<stop stop-color="#DDDDDD" stop-opacity="0"/>
<stop offset="1" stop-color="#DDDDDD"/>
</linearGradient>
<linearGradient id="paint2_linear_7941_3367" x1="31.8433" y1="52.4108" x2="31.8433" y2="82.818" gradientUnits="userSpaceOnUse">
<stop stop-color="#DDDDDD" stop-opacity="0"/>
<stop offset="1" stop-color="#DDDDDD"/>
</linearGradient>
<clipPath id="clip0_7941_3367">
<rect width="90" height="90" fill="white"/>
</clipPath>
<clipPath id="clip1_7941_3367">
<rect width="90" height="90" fill="white"/>
</clipPath>
</defs>
</svg>
