<svg width="299" height="40" viewBox="0 0 299 40" fill="none" xmlns="http://www.w3.org/2000/svg">
<rect y="4" width="32" height="32" rx="10" fill="#F2F2F2"/>
<path d="M22.9863 26.9618C21.1308 24.2543 19.2737 21.5478 17.4173 18.8409C17.3931 18.8057 17.3709 18.769 17.3407 18.7221C17.6658 18.3431 17.9894 17.9656 18.3133 17.5884C19.9966 15.6279 21.68 13.6671 23.3633 11.7064C23.3738 11.6941 23.3822 11.6802 23.3916 11.667H21.962C20.2148 13.7015 18.4675 15.7362 16.6925 17.8031C16.6712 17.7645 16.656 17.7314 16.6357 17.702C15.2727 15.7138 13.9093 13.7259 12.5463 11.7377C12.5313 11.7156 12.5206 11.6907 12.5078 11.667H7.66692C7.70887 11.7357 7.74757 11.8066 7.79296 11.8728C9.83886 14.8571 11.8853 17.841 13.9317 20.8252C13.9531 20.8563 13.9735 20.8881 14.0034 20.9331C13.8372 21.1281 13.6701 21.325 13.5017 21.5211C11.5992 23.7366 9.69654 25.9519 7.79423 28.1676C7.74902 28.2205 7.70923 28.2781 7.66692 28.3337H9.09649C9.74392 27.5761 10.3901 26.8175 11.0388 26.061C12.192 24.716 13.3469 23.3722 14.501 22.0281C14.5432 21.979 14.5866 21.931 14.6369 21.8737C14.6694 21.9131 14.6983 21.9435 14.7219 21.9777C16.1527 24.0637 17.5832 26.15 19.0135 28.2365C19.0346 28.2675 19.0516 28.3013 19.0706 28.3337H23.9113C23.6032 27.8763 23.2981 27.4168 22.9863 26.9618ZM21.7679 27.2976C21.1509 27.2981 20.5338 27.2949 19.9168 27.3007C19.802 27.3016 19.7313 27.2688 19.6642 27.1728C16.35 22.418 13.0331 17.6649 9.71679 12.9116C9.68623 12.8678 9.65838 12.822 9.60955 12.7472C10.2148 12.7472 10.7885 12.77 11.3592 12.7385C11.6969 12.7199 11.883 12.8387 12.0741 13.1139C15.3125 17.7763 18.5637 22.4298 21.8121 27.0853C21.8542 27.1457 21.8949 27.207 21.9502 27.288C21.8708 27.2924 21.8195 27.2974 21.7679 27.2976Z" fill="#254B86"/>
<rect x="51" y="4" width="32" height="32" rx="10" fill="white"/>
<path d="M72 13.153H70.1818C68.7596 13.153 68.4935 13.8254 68.4935 14.7949V16.9529H71.8828L71.4267 20.3212H68.4872V29H64.949V20.3212H62V16.9529H64.949V14.4509C64.949 11.5642 66.7418 10.0005 69.3551 10.0005C70.2387 9.99469 71.1219 10.0406 72 10.1381V13.153Z" fill="#4A5890"/>
<rect x="102" y="4" width="32" height="32" rx="10" fill="#F2F2F2"/>
<path d="M126.33 28.3341H122.88C122.879 26.3985 122.883 24.4629 122.872 22.5273C122.871 22.166 122.834 21.8017 122.777 21.4443C122.637 20.5604 122.158 20.0656 121.324 19.9882C120.188 19.883 119.372 20.3356 119.138 21.5295C119.051 21.9673 119.018 22.4217 119.015 22.869C119.001 24.6907 119.008 26.5124 119.007 28.3341H115.558C115.558 24.7012 115.558 21.0682 115.559 17.4352V17.2165H118.874V18.7587C118.925 18.6996 118.948 18.68 118.962 18.6556C119.548 17.6839 120.432 17.1544 121.53 16.9848C122.37 16.8548 123.208 16.9239 124.014 17.2135C125.075 17.5944 125.688 18.3839 126.006 19.4339C126.239 20.2039 126.318 20.9965 126.322 21.7947C126.333 23.9747 126.328 26.1542 126.33 28.3341Z" fill="#254B86"/>
<path d="M113.41 28.334H109.928C109.932 28.2587 109.94 28.1831 109.94 28.1079C109.941 24.5553 109.941 21.0028 109.941 17.4507V17.2168H113.399V17.4337C113.399 20.9915 113.399 24.5493 113.4 28.1074C113.4 28.1827 113.406 28.2583 113.41 28.334Z" fill="#254B86"/>
<path d="M113.669 13.6748C113.668 14.6839 112.876 15.583 111.908 15.6748C110.84 15.7761 109.904 15.0883 109.703 14.0566C109.693 14.0092 109.679 13.9626 109.667 13.9161V13.4279C109.679 13.3813 109.693 13.3348 109.702 13.2879C109.899 12.287 110.852 11.5731 111.854 11.677C112.888 11.7844 113.67 12.6453 113.669 13.6748Z" fill="#254B86"/>
<rect x="153" y="4" width="32" height="32" rx="10" fill="white"/>
<g clip-path="url(#clip0_7941_3877)">
<path d="M178.711 10.8955C176.267 8.46045 173.017 7.11867 169.554 7.11719C162.419 7.11719 156.612 12.8965 156.61 20.0001C156.609 22.2708 157.205 24.4873 158.337 26.4411L156.501 33.1172L163.363 31.3257C165.254 32.3523 167.383 32.8932 169.549 32.8941H169.554H169.554C176.689 32.8941 182.496 27.1138 182.499 20.0105C182.5 16.5678 181.155 13.3308 178.711 10.8955ZM169.554 30.7182H169.55C167.619 30.7171 165.726 30.201 164.074 29.2253L163.681 28.9933L159.609 30.0563L160.696 26.1048L160.44 25.6997C159.363 23.9946 158.794 22.0242 158.795 20.0009C158.797 14.0966 163.624 9.29324 169.558 9.29324C172.432 9.29443 175.134 10.4097 177.165 12.4337C179.196 14.4576 180.314 17.1482 180.313 20.0096C180.311 25.9141 175.484 30.7182 169.554 30.7182Z" fill="#E0E0E0"/>
<path d="M157.095 32.3762L158.848 26.0052C157.766 24.1406 157.198 22.0251 157.199 19.8586C157.201 13.0796 162.743 7.56445 169.552 7.56445C172.856 7.56594 175.958 8.84635 178.29 11.1703C180.622 13.4941 181.906 16.5831 181.905 19.8682C181.902 26.6473 176.36 32.163 169.552 32.163C169.552 32.163 169.552 32.163 169.552 32.163H169.547C167.479 32.1623 165.448 31.6456 163.644 30.6667L157.095 32.3762Z" fill="url(#paint0_linear_7941_3877)"/>
<path fill-rule="evenodd" clip-rule="evenodd" d="M166.356 14.5306C166.116 14.0005 165.864 13.9899 165.636 13.9806C165.45 13.9727 165.236 13.9732 165.023 13.9732C164.81 13.9732 164.464 14.0529 164.171 14.3714C163.878 14.69 163.052 15.46 163.052 17.0261C163.052 18.5924 164.197 20.1058 164.357 20.3184C164.517 20.5306 166.569 23.8472 169.819 25.1232C172.52 26.1835 173.069 25.9726 173.656 25.9196C174.242 25.8665 175.547 25.1497 175.814 24.4063C176.08 23.6631 176.08 23.0261 176 22.8929C175.92 22.7603 175.707 22.6807 175.387 22.5215C175.068 22.3623 173.496 21.5921 173.203 21.486C172.91 21.3799 172.696 21.3268 172.483 21.6455C172.27 21.9639 171.658 22.6807 171.471 22.8929C171.285 23.1057 171.098 23.1322 170.778 22.973C170.458 22.8134 169.429 22.4776 168.207 21.3931C167.257 20.5495 166.615 19.5075 166.428 19.1888C166.242 18.8704 166.408 18.698 166.569 18.5393C166.712 18.3967 166.889 18.1677 167.048 17.9818C167.208 17.7959 167.261 17.6633 167.368 17.4511C167.474 17.2385 167.421 17.0526 167.341 16.8934C167.261 16.7343 166.64 15.1601 166.356 14.5306Z" fill="white"/>
<path d="M178.605 10.8546C176.189 8.44748 172.977 7.12114 169.554 7.11963C162.5 7.11963 156.76 12.8326 156.757 19.8546C156.757 22.0993 157.346 24.2904 158.465 26.2218L156.65 32.8212L163.434 31.0502C165.303 32.065 167.407 32.5998 169.548 32.6006H169.554H169.554C176.606 32.6006 182.347 26.8867 182.35 19.8649C182.351 16.4618 181.021 13.2619 178.605 10.8546ZM169.554 30.4497H169.55C167.641 30.4487 165.769 29.9385 164.136 28.9739L163.748 28.7446L159.722 29.7954L160.797 25.8893L160.544 25.4889C159.479 23.8034 158.917 21.8555 158.918 19.8555C158.92 14.019 163.691 9.27075 169.558 9.27075C172.399 9.27191 175.069 10.3744 177.077 12.3751C179.085 14.3758 180.19 17.0355 180.189 19.8641C180.187 25.7008 175.416 30.4497 169.554 30.4497Z" fill="white"/>
</g>
<rect x="208" y="4" width="32" height="32" rx="10" fill="white"/>
<path d="M231.946 23.3007C231.886 24.5836 231.592 25.718 230.654 26.6565C229.715 27.595 228.581 27.8857 227.302 27.9489C226.199 28.0089 225.09 27.9995 224 27.9995C222.91 27.9995 221.788 27.9995 220.698 27.9489C219.435 27.8857 218.282 27.595 217.343 26.6565C216.405 25.718 216.114 24.5836 216.054 23.3007C215.991 22.1979 216.001 21.0888 216.001 19.9987C216.001 18.9085 216.001 17.8026 216.054 16.6966C216.114 15.4169 216.408 14.2825 217.343 13.344C218.278 12.4055 219.419 12.1148 220.698 12.0516C221.801 11.9884 222.91 12.001 224 12.001C225.09 12.001 226.212 12.001 227.302 12.0516C228.581 12.1148 229.718 12.4055 230.654 13.344C231.589 14.2825 231.886 15.4169 231.946 16.6966C232.009 17.8026 231.999 18.9085 231.999 19.9987C231.999 21.0888 232.006 22.1979 231.946 23.3007ZM219.283 13.7642C218.937 13.8959 218.624 14.1019 218.367 14.3678C218.102 14.6267 217.895 14.9391 217.76 15.2841C217.343 16.3364 217.444 18.8358 217.444 20.0018C217.444 21.1678 217.35 23.6704 217.76 24.7227C217.895 25.0677 218.102 25.3801 218.367 25.639C218.624 25.9049 218.937 26.1109 219.283 26.2426C220.335 26.6597 222.834 26.5586 224 26.5586C225.166 26.5586 227.665 26.6533 228.717 26.2426C229.063 26.1109 229.376 25.9049 229.633 25.639C229.898 25.3801 230.105 25.0677 230.24 24.7227C230.654 23.6704 230.556 21.171 230.556 20.0018C230.556 18.8327 230.647 16.3364 230.24 15.2841C230.105 14.9391 229.898 14.6267 229.633 14.3678C229.376 14.1019 229.063 13.8959 228.717 13.7642C227.665 13.3471 225.166 13.4483 224 13.4483C222.834 13.4483 220.335 13.344 219.283 13.7642ZM224 24.1065C223.188 24.1065 222.394 23.8656 221.718 23.4142C221.043 22.9628 220.516 22.3213 220.205 21.5707C219.895 20.8201 219.813 19.9941 219.972 19.1973C220.13 18.4004 220.521 17.6685 221.096 17.094C221.67 16.5195 222.402 16.1283 223.199 15.9698C223.995 15.8113 224.821 15.8926 225.572 16.2035C226.322 16.5144 226.964 17.0409 227.415 17.7165C227.866 18.392 228.107 19.1862 228.107 19.9987C228.106 21.0876 227.673 22.1316 226.903 22.9013C226.133 23.671 225.089 24.1033 224 24.1033V24.1065ZM224 17.3349C223.473 17.3349 222.957 17.4913 222.519 17.7844C222.08 18.0774 221.738 18.4939 221.536 18.9812C221.335 19.4686 221.282 20.0048 221.385 20.5221C221.488 21.0394 221.742 21.5147 222.114 21.8876C222.487 22.2606 222.963 22.5146 223.48 22.6175C223.997 22.7204 224.533 22.6676 225.02 22.4657C225.508 22.2639 225.924 21.9221 226.217 21.4835C226.51 21.0449 226.666 20.5293 226.666 20.0018C226.666 19.2945 226.385 18.6163 225.885 18.1158C225.385 17.6154 224.707 17.3334 224 17.3317V17.3349ZM228.271 16.7029C228.084 16.7029 227.901 16.6473 227.745 16.5432C227.589 16.439 227.468 16.2909 227.396 16.1177C227.324 15.9445 227.305 15.7539 227.342 15.57C227.378 15.3861 227.469 15.2172 227.601 15.0846C227.734 14.9521 227.903 14.8618 228.087 14.8252C228.27 14.7886 228.461 14.8074 228.634 14.8792C228.807 14.9509 228.955 15.0724 229.06 15.2283C229.164 15.3842 229.219 15.5675 229.219 15.755C229.215 16.0036 229.113 16.2407 228.936 16.4151C228.759 16.5895 228.52 16.6872 228.271 16.6871V16.7029Z" fill="url(#paint1_linear_7941_3877)"/>
<rect x="263" y="4" width="32" height="32" rx="10" fill="white"/>
<path d="M285.989 13.2012C286.365 13.2011 286.738 13.2759 287.085 13.421C287.432 13.5661 287.746 13.7786 288.01 14.0462C288.01 14.0462 288.623 14.6465 288.801 16.0213C288.933 17.0905 288.999 18.1666 289 19.2438V20.7595C288.999 21.8356 288.933 22.9106 288.801 23.9787C288.623 25.3468 288.01 25.9571 288.01 25.9571C287.473 26.4899 286.747 26.789 285.989 26.7887C285.989 26.7887 283.2 27 278.993 27C273.793 26.9531 272.2 26.7954 272.2 26.7954C271.752 26.7183 270.748 26.7384 269.99 25.9504C269.99 25.9504 269.377 25.3401 269.199 23.972C269.068 22.9061 269.002 21.8333 269 20.7595V19.2438C269.003 18.1666 269.07 17.0905 269.202 16.0213C269.381 14.6465 269.994 14.0462 269.994 14.0462C270.257 13.778 270.571 13.565 270.918 13.4199C271.265 13.2748 271.638 13.2004 272.014 13.2012C272.014 13.2012 274.803 13 279.01 13C283.217 13 285.989 13.2012 285.989 13.2012ZM282.331 19.8005L276.942 16.9904V22.577L282.331 19.8005Z" fill="#DB5336"/>
<defs>
<linearGradient id="paint0_linear_7941_3877" x1="169.5" y1="32.3762" x2="169.5" y2="7.56449" gradientUnits="userSpaceOnUse">
<stop stop-color="#20B038"/>
<stop offset="1" stop-color="#60D66A"/>
</linearGradient>
<linearGradient id="paint1_linear_7941_3877" x1="232" y1="12" x2="216" y2="28" gradientUnits="userSpaceOnUse">
<stop stop-color="#F7C760"/>
<stop offset="0.473958" stop-color="#EA634E"/>
<stop offset="1" stop-color="#BE48A2"/>
</linearGradient>
<clipPath id="clip0_7941_3877">
<rect width="26" height="26" fill="white" transform="translate(156.5 7.11719)"/>
</clipPath>
</defs>
</svg>
