<svg width="16" height="16" viewBox="0 0 16 16" fill="none" xmlns="http://www.w3.org/2000/svg">
<path d="M10.88 0.906594H6.61333C6.00889 0.906594 5.45778 1.04882 4.96 1.33326C4.46222 1.61771 4.06222 2.01771 3.76 2.53326C3.45778 3.04882 3.30667 3.60882 3.30667 4.21326H2.34667C1.70667 4.21326 1.15556 4.44437 0.693333 4.9066C0.231111 5.36882 0 5.91993 0 6.55993V7.99993C0 8.14215 0.0444444 8.25771 0.133333 8.34659C0.222222 8.43548 0.337778 8.47993 0.48 8.47993H7.09333C7.23556 8.47993 7.35111 8.43548 7.44 8.34659C7.52889 8.25771 7.57333 8.14215 7.57333 7.99993V6.55993C7.57333 5.91993 7.34222 5.36882 6.88 4.9066C6.41778 4.44437 5.86667 4.21326 5.22667 4.21326H4.26667C4.26667 3.57326 4.49778 3.02215 4.96 2.55993C5.42222 2.09771 5.97333 1.84882 6.61333 1.81326H10.88C11.52 1.84882 12.0711 2.09771 12.5333 2.55993C12.9956 3.02215 13.2444 3.57326 13.28 4.21326V14.6133H14.1867V4.21326C14.1867 3.60882 14.0444 3.04882 13.76 2.53326C13.4756 2.01771 13.0756 1.61771 12.56 1.33326C12.0444 1.04882 11.4844 0.906594 10.88 0.906594ZM5.17333 5.17326C5.56444 5.17326 5.90222 5.30659 6.18667 5.57326C6.47111 5.83993 6.61333 6.16882 6.61333 6.55993V7.51993H0.906667V6.55993C0.906667 6.16882 1.04889 5.83993 1.33333 5.57326C1.61778 5.30659 1.95556 5.17326 2.34667 5.17326H5.17333ZM0.48 9.91993H1.38667V13.2266H0.48V9.91993ZM2.34667 9.91993H3.30667V11.3066H2.34667V9.91993ZM2.34667 12.7466H3.30667V14.6133H2.34667V12.7466ZM4.26667 9.91993H5.17333V12.2666H4.26667V9.91993ZM4.26667 13.2266H5.17333V14.1333H4.26667V13.2266ZM6.13333 9.91993H7.09333V11.3066H6.13333V9.91993ZM6.13333 12.2666H7.09333V15.0933H6.13333V12.2666Z" fill="#181A20"/>
</svg>
