<svg width="14" height="14" viewBox="0 0 14 14" fill="none" xmlns="http://www.w3.org/2000/svg">
<path d="M9.08444 6.85997C9.02222 6.6733 8.89778 6.57997 8.71111 6.57997H6.42445L7.07778 1.25997C7.10889 1.0733 7.03889 0.933305 6.86778 0.839971C6.69667 0.746637 6.53333 0.762194 6.37778 0.886638L0.124444 6.6733C0 6.82886 -0.0311111 6.99219 0.0311111 7.1633C0.0933333 7.33441 0.217778 7.41997 0.404444 7.41997H2.69111L2.03778 12.74C2.00667 12.9266 2.07667 13.0666 2.24778 13.16C2.41889 13.2533 2.58222 13.2377 2.73778 13.1133L8.99111 7.27997C9.11556 7.15553 9.14667 7.01553 9.08444 6.85997ZM3.01778 11.7133L3.57778 7.04664C3.60889 6.92219 3.57778 6.8133 3.48444 6.71997C3.39111 6.62664 3.28222 6.57997 3.15778 6.57997H1.43111L6.09778 2.28664L5.53778 6.9533C5.50667 7.07775 5.53778 7.18664 5.63111 7.27997C5.72444 7.3733 5.83333 7.41997 5.95778 7.41997H7.68445L3.01778 11.7133Z" fill="white"/>
</svg>
