<svg width="16" height="16" viewBox="0 0 16 16" fill="none" xmlns="http://www.w3.org/2000/svg">
<g clip-path="url(#clip0_7941_3311)">
<path d="M7.05333 3.19997H15.5333C15.7467 3.23553 15.9156 3.15553 16.04 2.95997C16.1644 2.76442 16.1644 2.56886 16.04 2.37331C15.9156 2.17775 15.7467 2.09775 15.5333 2.13331H7.05333C6.91111 2.13331 6.79556 2.18664 6.70667 2.29331C6.61778 2.39997 6.57333 2.52442 6.57333 2.66664C6.57333 2.80886 6.61778 2.93331 6.70667 3.03997C6.79556 3.14664 6.91111 3.19997 7.05333 3.19997ZM0.6 3.19997H1.66667C1.73778 3.41331 1.86222 3.60886 2.04 3.78664L2.46667 4.15997C2.75111 4.47997 3.11556 4.63997 3.56 4.63997C4.00444 4.63997 4.38667 4.47997 4.70667 4.15997L5.08 3.78664C5.4 3.46664 5.56 3.09331 5.56 2.66664C5.56 2.23997 5.4 1.86664 5.08 1.54664L4.70667 1.17331C4.38667 0.853307 4.00444 0.693307 3.56 0.693307C3.11556 0.693307 2.73333 0.853307 2.41333 1.17331L2.09333 1.54664C1.91556 1.72442 1.79111 1.91997 1.72 2.13331H0.6C0.386667 2.09775 0.217778 2.17775 0.0933333 2.37331C-0.0311111 2.56886 -0.0311111 2.76442 0.0933333 2.95997C0.217778 3.15553 0.386667 3.23553 0.6 3.19997ZM2.78667 2.29331L3.16 1.91997C3.26667 1.81331 3.4 1.75997 3.56 1.75997C3.72 1.75997 3.83556 1.81331 3.90667 1.91997L4.33333 2.29331C4.44 2.39997 4.49333 2.52442 4.49333 2.66664C4.49333 2.80886 4.44 2.93331 4.33333 3.03997L3.96 3.41331C3.85333 3.51997 3.72 3.57331 3.56 3.57331C3.4 3.57331 3.26667 3.51997 3.16 3.41331L2.78667 3.03997C2.68 2.93331 2.62667 2.80886 2.62667 2.66664C2.62667 2.52442 2.68 2.39997 2.78667 2.29331ZM15.5333 7.46664H11.5867C11.3378 7.43109 11.16 7.51109 11.0533 7.70664C10.9467 7.9022 10.9467 8.09775 11.0533 8.29331C11.16 8.48886 11.3378 8.56886 11.5867 8.53331H15.5867C15.6933 8.53331 15.8 8.47997 15.9067 8.37331C16.0133 8.26664 16.0667 8.1422 16.0667 7.99997C16.0667 7.85775 16.0133 7.73331 15.9067 7.62664C15.8 7.51997 15.6933 7.46664 15.5867 7.46664H15.5333ZM0.6 8.53331H6.2C6.27111 8.74664 6.39556 8.9422 6.57333 9.11997L6.94667 9.49331C7.26667 9.81331 7.64 9.97331 8.06667 9.97331C8.49333 9.97331 8.86667 9.81331 9.18667 9.49331L9.56 9.11997C9.88 8.79997 10.04 8.42664 10.04 7.99997C10.04 7.57331 9.88 7.19997 9.56 6.87997L9.18667 6.50664C8.86667 6.18664 8.49333 6.02664 8.06667 6.02664C7.64 6.02664 7.26667 6.18664 6.94667 6.50664L6.57333 6.87997C6.39556 7.05775 6.27111 7.25331 6.2 7.46664H0.6C0.457778 7.5022 0.342222 7.56442 0.253333 7.65331C0.164444 7.7422 0.12 7.85775 0.12 7.99997C0.12 8.1422 0.164444 8.26664 0.253333 8.37331C0.342222 8.47997 0.457778 8.53331 0.6 8.53331ZM7.32 7.62664L7.69333 7.25331C7.8 7.14664 7.92444 7.09331 8.06667 7.09331C8.20889 7.09331 8.33333 7.14664 8.44 7.25331L8.81333 7.62664C8.92 7.73331 8.97333 7.85775 8.97333 7.99997C8.97333 8.1422 8.92 8.26664 8.81333 8.37331L8.44 8.74664C8.33333 8.85331 8.20889 8.90664 8.06667 8.90664C7.92444 8.90664 7.8 8.85331 7.69333 8.74664L7.32 8.37331C7.21333 8.26664 7.16 8.1422 7.16 7.99997C7.16 7.85775 7.21333 7.73331 7.32 7.62664ZM13.72 11.84C13.4 11.52 13.0178 11.36 12.5733 11.36C12.1289 11.36 11.7467 11.52 11.4267 11.84L11.0533 12.2133C10.8756 12.3911 10.7511 12.5866 10.68 12.8H0.6C0.386667 12.7644 0.217778 12.8444 0.0933333 13.04C-0.0311111 13.2355 -0.0311111 13.4311 0.0933333 13.6266C0.217778 13.8222 0.386667 13.9022 0.6 13.8666H10.68C10.7867 14.08 10.9111 14.2755 11.0533 14.4533L11.4267 14.8266C11.7467 15.1466 12.1289 15.3066 12.5733 15.3066C13.0178 15.3066 13.4 15.1466 13.72 14.8266L14.0933 14.4533C14.4133 14.1333 14.5733 13.76 14.5733 13.3333C14.5733 12.9066 14.4133 12.5333 14.0933 12.2133L13.72 11.84ZM13.3467 13.7066L12.9733 14.08C12.8667 14.1866 12.7422 14.24 12.6 14.24C12.4578 14.24 12.3333 14.1866 12.2267 14.08L11.8533 13.7066C11.7467 13.6 11.6933 13.4755 11.6933 13.3333C11.6933 13.1911 11.7467 13.0666 11.8533 12.96L12.2267 12.5866C12.3333 12.48 12.4578 12.4266 12.6 12.4266C12.7422 12.4266 12.8667 12.48 12.9733 12.5866L13.3467 12.96C13.4533 13.0666 13.5067 13.1911 13.5067 13.3333C13.5067 13.4755 13.4533 13.6 13.3467 13.7066ZM15.5333 13.8666C15.3556 13.8666 15.2133 13.7866 15.1067 13.6266C15 13.4666 14.9822 13.2978 15.0533 13.12C15.0533 13.0489 15.0889 12.9955 15.16 12.96C15.3022 12.7822 15.4889 12.7378 15.72 12.8266C15.9511 12.9155 16.0667 13.0844 16.0667 13.3333C16.0667 13.4755 16.0133 13.6 15.9067 13.7066C15.8 13.8133 15.6756 13.8666 15.5333 13.8666Z" fill="#181A20"/>
</g>
<defs>
<clipPath id="clip0_7941_3311">
<rect width="16" height="16" fill="white" transform="matrix(1 0 0 -1 0 16)"/>
</clipPath>
</defs>
</svg>
