<svg width="15" height="16" viewBox="0 0 15 16" fill="none" xmlns="http://www.w3.org/2000/svg">
<g clip-path="url(#clip0_7941_3363)">
<path d="M14.5831 0.628906H5.41648C5.18616 0.628906 4.9998 0.815303 4.9998 1.04565C4.9998 1.276 5.18616 1.4624 5.41648 1.4624H13.5773L0.121867 14.9199C-0.0409071 15.0827 -0.0409071 15.3464 0.121867 15.5092C0.203233 15.5906 0.309874 15.6313 0.416476 15.6313C0.523077 15.6313 0.629679 15.5906 0.711085 15.5092L14.1665 2.05167V10.2137C14.1665 10.4441 14.3529 10.6305 14.5831 10.6305C14.8135 10.6305 14.9998 10.4441 14.9998 10.2137V1.04565C14.9998 0.815303 14.8135 0.628906 14.5831 0.628906Z" fill="#EF7F1A"/>
</g>
<defs>
<clipPath id="clip0_7941_3363">
<rect width="15" height="15.94" fill="white"/>
</clipPath>
</defs>
</svg>
